<svg xmlns="http://www.w3.org/2000/svg" viewBox="0 0 562.53 237.42"><defs><style>.cls-1{fill:#fff;}.cls-2{fill:none;stroke:#fff;stroke-linecap:round;stroke-miterlimit:10;stroke-width:2px;}.cls-3{fill:red;}</style></defs><title>lgx</title><g id="Camada_2" data-name="Camada 2"><g id="Camada_1-2" data-name="Camada 1"><path class="cls-1" d="M0,104.65v28.12H100.08v-6.06H30c-.79,0-1.43-.4-1.43-.89V104.65Z"/><circle class="cls-1" cx="120.85" cy="118.72" r="4.41"/><circle class="cls-1" cx="258.24" cy="118.72" r="4.41"/><line class="cls-2" x1="300.04" y1="118.71" x2="561.53" y2="118.71"/><line class="cls-2" x1="443.82" y1="236.42" x2="443.82" y2="1"/><circle class="cls-3" cx="443.82" cy="118.71" r="7.36"/><ellipse class="cls-2" cx="443.82" cy="118.71" rx="27.68" ry="18.44"/><ellipse class="cls-2" cx="443.82" cy="118.71" rx="50.11" ry="33.38"/><ellipse class="cls-2" cx="443.82" cy="118.71" rx="73.97" ry="49.27"/><polygon class="cls-3" points="319.67 118.71 399.03 167.98 332.14 167.98 300.04 128.64 267.94 167.98 201.06 167.98 280.43 118.71 201.06 69.44 267.94 69.44 300.04 108.77 332.14 69.44 399.03 69.44 319.67 118.71"/><path class="cls-1" d="M165.93,124.74V112.67c0-1.1,1.44-2,3.21-2h67.94c.28,0,.52-.15.52-.32h0c0-3.15-4.1-5.7-9.15-5.7H149c-6.32,0-11.44,3.19-11.44,7.12v13.87c0,3.93,5.12,7.12,11.44,7.12h78.29c5.72,0,10.35-2.88,10.35-6.44V115.65c0-.18-.24-.33-.52-.33H183.5c-.28,0-.52.15-.52.33v3.5c0,1.1,1.44,2,3.21,2H206c1.77,0,3.2.89,3.2,2v1.6c0,1.1-1.43,2-3.2,2H169.14C167.37,126.73,165.93,125.84,165.93,124.74Z"/></g></g></svg>